<svg version="1.1" id="Layer_1" xmlns="http://www.w3.org/2000/svg" xmlns:xlink="http://www.w3.org/1999/xlink" x="0px" y="0px"
     width="180px" height="32px" viewBox="95 -10 168 60" style="enable-background:new 0 0 168 36.6;" xml:space="preserve"><title>文字</title><g id="图层_2" data-name="图层 2" fill="white"><g id="图层_1-2" data-name="图层 1"><rect x="34.7" y="17.54" width="16.72" height="12.15"/><polygon points="290.1 1.07 272.14 1.07 272.14 8.32 266.45 8.32 266.45 11.16 272.14 11.16 272.14 33.41 266.74 33.55 266.74 33.46 235.28 33.46 235.28 6.63 262.12 6.63 262.12 3.75 187.28 3.75 187.28 6.63 214.12 6.63 214.12 33.46 190.07 33.46 190.07 33.41 172.29 33.41 172.41 7.27 129.33 7.27 129.4 0 108.2 0 108.14 7.27 91.12 7.27 91.12 10.15 107.94 10.15 107.86 33.41 83.31 33.41 83.31 33.42 78.16 33.42 78.16 10.19 28.7 10.19 28.7 4.77 84.68 4.77 84.68 1.85 0 1.85 0 4.77 7.51 4.77 7.51 36.34 41.31 36.34 41.31 33.42 28.7 33.42 28.7 13.11 56.87 13.11 56.87 36.34 128.85 36.34 128.85 36.23 128.95 36.23 129.13 10.15 151.31 10.15 151.06 33.3 134.67 33.3 134.67 33.41 134.48 33.41 134.48 36.34 182.66 36.34 190.25 36.34 266.45 36.34 266.45 36.4 295.78 36.22 295.78 33.58 290.1 33.71 290.1 11.16 295.78 11.16 295.78 8.32 290.1 8.32 290.1 1.07"/><path d="M350.45,5.44H334.36V1.14H313.74v4.3H297.56V8.28h4.79l-.06,28.34h19.2l.22-20.45h9.36v.25h0v20.2h18.55V33.37a1.49,1.49,0,0,0,0-.26V13.52H321.56l-.1-5.23h29Z"/></g></g></svg>
