<svg xmlns="http://www.w3.org/2000/svg" xmlns:xlink="http://www.w3.org/1999/xlink" viewBox="0 0 351 114.32"><defs><style>.cls-1{fill:url(#未命名的渐变_17);}.cls-2{fill:url(#未命名的渐变_17-2);}.cls-3{fill:url(#未命名的渐变_20);}.cls-4{fill:url(#未命名的渐变_17-3);}</style><linearGradient id="未命名的渐变_17" x1="298.35" y1="72.84" x2="351" y2="72.84" gradientUnits="userSpaceOnUse"><stop offset="0" stop-color="#e60505"/><stop offset="1" stop-color="#32070b"/></linearGradient><linearGradient id="未命名的渐变_17-2" x1="298.35" y1="26.31" y2="26.31" xlink:href="#未命名的渐变_17"/><linearGradient id="未命名的渐变_20" y1="57.22" x2="228.39" y2="57.22" gradientUnits="userSpaceOnUse"><stop offset="0" stop-color="#e60505"/><stop offset="0.9" stop-color="#32070b"/></linearGradient><linearGradient id="未命名的渐变_17-3" x1="175.68" y1="57.22" x2="289.87" y2="57.22" xlink:href="#未命名的渐变_17"/></defs><title>logo</title><g id="图层_2" data-name="图层 2"><g id="图层_1-2" data-name="图层 1"><path class="cls-1" d="M351,31.61h0a61.84,61.84,0,0,1-8.94,11.5q-1,1-2.1,2-.71.66-1.45,1.3l-1.15,1-.68.55q-1.73,1.39-3.56,2.65-.8.55-1.62,1.08l-.82.52-1.33.8q-1.22.71-2.47,1.37l-.9.46-.89.44-.85.4-1,.44-.67.3q-2,.85-4,1.56l-1.57.53a61.06,61.06,0,0,1-15.45,2.82h-.21q-1.51.07-3,.07h0v52.65q5.19,0,10.26-.46l.64-.06q3.93-.37,7.77-1,3-.5,6-1.16l2.32-.54A113.3,113.3,0,0,0,351,101.18V31.61Z"/><path class="cls-2" d="M351,18.73V0H298.35V52.62C320.67,52.62,340.24,36.59,351,18.73Z"/><path class="cls-3" d="M114.19,114.32A114.32,114.32,0,0,1,0,.12H52.7a61.56,61.56,0,0,0,61.49,61.49,61.14,61.14,0,0,0,34.36-10.49,61.49,61.49,0,0,0,27.13-51h52.7A114.13,114.13,0,0,1,178.06,94.8,113.65,113.65,0,0,1,114.19,114.32Z"/><path class="cls-4" d="M289.87,114.32A114.32,114.32,0,0,1,175.68.12h52.7a61.56,61.56,0,0,0,61.49,61.49Z"/></g></g></svg>
